PathFileType	4	(X/Y/Z)	RBDS016\RBDS016runT25.trc
DataRate	CameraRate	NumFrames	NumMarkers	Units	OrigDataRate	OrigDataStartFrame	OrigNumFrames
150.000000	150.000000	5	33	mm	150.000000	0	4500
Frame#	Time	L.ASIS			L.Heel.Bottom			L.Heel.Lateral			L.Heel.Top			L.Iliac.Crest			L.MT1			L.MT5			L.PSIS			L.Shank.Bottom.Lateral			L.Shank.Bottom.Medial			L.Shank.Top.Lateral			L.Shank.Top.Medial			L.Thigh.Bottom.Lateral			L.Thigh.Bottom.Medial			L.Thigh.Top.Lateral			L.Thigh.Top.Medial			R.ASIS			R.ASY			R.Heel.Bottom			R.Heel.Lateral			R.Heel.Top			R.Iliac.Crest			R.MT1			R.MT5			R.PSIS			R.Shank.Bottom.Lateral			R.Shank.Bottom.Medial			R.Shank.Top.Lateral			R.Shank.Top.Medial			R.Thigh.Bottom.Lateral			R.Thigh.Bottom.Medial			R.Thigh.Top.Lateral			R.Thigh.Top.Medial			
		X1	Y1	Z1	X2	Y2	Z2	X3	Y3	Z3	X4	Y4	Z4	X5	Y5	Z5	X6	Y6	Z6	X7	Y7	Z7	X8	Y8	Z8	X9	Y9	Z9	X10	Y10	Z10	X11	Y11	Z11	X12	Y12	Z12	X13	Y13	Z13	X14	Y14	Z14	X15	Y15	Z15	X16	Y16	Z16	X17	Y17	Z17	X18	Y18	Z18	X19	Y19	Z19	X20	Y20	Z20	X21	Y21	Z21	X22	Y22	Z22	X23	Y23	Z23	X24	Y24	Z24	X25	Y25	Z25	X26	Y26	Z26	X27	Y27	Z27	X28	Y28	Z28	X29	Y29	Z29	X30	Y30	Z30	X31	Y31	Z31	X32	Y32	Z32	X33	Y33	Z33	

1	0	2417.828874325943	880.7924796479028	935.2955120986724	2180.319534373538	35.08510083442933	1053.052071177457	2202.066103786842	54.7756604590492	1008.817228875325	2195.326021386118	81.44418353348131	1052.957296698378	2323.831578454937	947.1271777427706	897.8343668145874	2403.542568834117	46.17291419983264	1062.951361873423	2353.122525737947	41.53057844297256	963.4643610052736	2236.457911796252	912.6514780051722	1034.946116612044	2270.942830646502	159.474837093461	985.4166016172539	2250.273624579223	176.7688784146378	1034.638514125286	2291.054307804931	235.4716633817112	968.0364581010059	2273.492981391305	252.348239079876	1015.910515584882	2380.889832540872	522.2547084729291	910.3819578801612	2321.771599382261	517.5840911125305	953.2161530915739	2355.984119384343	627.0235463068379	888.0567488358739	2300.216292633715	622.4543591408853	929.7818715246603	2439.520636538381	871.8037115611758	1182.499637462252	2126.92942724629	176.479808669937	1189.177978360816	2005.066243916692	320.6174706810391	1143.344544462171	2035.921549458149	315.5039772923559	1188.4151543748	2055.942490756188	330.1775812301854	1141.154880022417	2364.378398144173	938.8588753835967	1229.668521647912	2108.724750441581	130.8069974231803	1158.566096486532	2080.937122909115	177.9276972630775	1253.83038847205	2247.987944192126	902.5545610510626	1131.546092672944	2154.382488885135	324.6960921451928	1209.048449808296	2144.191610867949	355.8713607271673	1169.689179341221	2229.534508581997	363.0117450814287	1217.6508135689	2215.039813606906	394.0430097349824	1176.950343387656	2420.642934242544	515.5753719219952	1223.600873679188	2366.409179560254	503.0205027150842	1177.036617381919	2381.289598117324	617.6435663923276	1240.064916436478	2329.535354876438	605.090991765732	1197.342692738743	
2	0.006666666666666667	2418.922342429779	885.6723677212116	937.2186763300424	2163.666761073959	35.60392721602086	1053.095679366114	2185.423905301657	55.3187637792355	1008.819106418366	2178.631493802811	81.92635956961281	1052.995368576903	2324.834761559733	950.6110992742232	896.6789613366848	2386.916562612939	46.30714475840004	1062.996080293638	2336.473880028053	41.53260771454871	963.4679343287993	2236.337812027694	916.5579066492955	1033.992392347747	2254.812083133746	160.9047580154703	985.5504034604173	2234.028559588393	178.482982364556	1034.602492640551	2275.424024561351	236.7858075118396	968.2219463090913	2257.728193898607	253.9032093328585	1015.988303401529	2369.99483707492	523.9479006202105	910.7357900341647	2310.863371191918	521.2527853318799	953.5058892306567	2348.627894509342	629.3413834066891	888.3218424333	2292.76506193225	626.6717110069209	929.9842482380582	2438.70421951728	876.3345705061151	1182.046493612796	2145.420381133941	171.8866117575598	1189.531294424878	2016.039882894299	309.130799211722	1144.968797419977	2047.509573446856	305.488639785966	1189.704392704043	2066.14048012604	321.253414864465	1142.330776543097	2362.833403440989	942.1882993952889	1229.007280172448	2128.996521309285	124.9939924761958	1158.556273533663	2100.094725585775	170.5661240366909	1254.392797199687	2247.06275046852	906.7565704119409	1130.601812857184	2166.108264720115	319.8083386366154	1209.605642336032	2154.348617198299	350.8336141197099	1170.570144434016	2239.731830286391	361.0284587876918	1218.007353506063	2223.676176931627	391.7406500810949	1177.696676038166	2426.500411444932	521.1932686860362	1223.834442329669	2372.107330895163	507.1727692456213	1178.003825127112	2384.998598497943	622.4011286565965	1240.603483473921	2333.208738256439	608.3337485037	1198.569614901932	
3	0.01333333333333333	2419.955743758807	890.3870591321597	938.9971282151282	2147.035191539156	36.37321608460763	1053.139530131373	2168.814482029997	56.05650752490791	1008.808535996407	2162.000379654217	82.64334437186423	1052.997316561479	2325.991163864483	954.1441239760767	895.6014305334427	2370.263086341825	46.45915362613891	1063.031382067177	2319.785018115393	41.55283882705988	963.4870404438176	2236.274186934994	920.5450125179293	1033.063371472606	2238.682172918043	162.4974769974867	985.6710733721959	2217.813568863713	180.336822852268	1034.572478698532	2259.772773572388	238.2673412002418	968.3929890546574	2241.975404973706	255.6064786899275	1016.067032953141	2359.090638672123	525.79719528464	911.0817668186044	2299.960511511576	525.0872812378054	953.7910348256223	2341.276416051849	631.7854952741574	888.5932186737195	2285.339608654344	631.0219599704574	930.1940523687379	2437.945170718848	880.8982191103131	1181.564546275126	2164.071323290398	167.2784192107321	1189.863128168975	2027.2912418418	297.4061203833724	1146.381882812064	2059.2982997303	295.2671734013106	1190.815009528716	2076.563589802907	312.1055824841309	1143.34490047012	2361.379665233144	945.6804200757637	1228.366149336134	2149.541225023116	119.2320617138389	1158.553181895736	2119.390070744857	163.1954819931941	1254.891190631274	2246.243033279034	911.0685149135791	1129.70492927519	2177.88483873342	314.8144005050293	1210.070818081649	2164.572001712246	345.6327486568184	1171.331590402587	2249.875865196975	358.9689874734306	1218.300967580024	2232.27641816661	389.3013985936527	1178.347360436031	2432.258810202962	526.8760079097251	1224.088512217007	2377.733340467528	511.4302932402614	1178.946204943366	2388.666079516332	627.2279328844539	1241.150382945827	2336.849172588284	611.691900613351	1199.77237947404	
4	0.02	2420.877519592307	894.7967375893122	940.510001655059	2130.44008852045	37.62579406974156	1053.183009510169	2152.266863349784	57.16718870670542	1008.774419655859	2145.488798998334	83.81323027418685	1052.930748370561	2327.45054102692	957.7645398604341	894.6718369639595	2353.560381922945	46.62920572317375	1063.049935370807	2303.023121736589	41.60080213554495	963.53601500038	2236.317042887092	924.6886334273681	1032.17818557163	2222.553452127133	164.4081214350412	985.7637472739726	2201.657479024677	182.4638983299489	1034.551597487653	2244.078175690265	240.07693235025	968.5345933259647	2226.244152476836	257.6000257212089	1016.146880203991	2348.166934187221	527.9510153413866	911.4085670774666	2289.06399010259	529.2457107347444	954.059715545361	2333.934083074792	634.4753212035648	888.8722839964124	2277.96241836908	635.6313219797014	930.4127074384587	2437.291119603514	885.5350305388948	1181.02887008057	2183.033951088968	162.6171357131406	1190.155278043927	2039.071595037415	285.1942303343756	1147.406009867819	2071.466551287177	284.6253580588859	1191.596363832884	2087.416353208117	302.5032202100647	1144.057543923703	2360.102123716184	949.4918783352284	1227.759459164602	2170.618206069912	113.5368437188505	1158.567024401729	2138.952825360393	155.7841589431425	1255.27737433032	2245.624770865341	915.5927374304044	1128.89440585018	2189.761253359658	309.5966453958188	1210.366089254891	2174.923003822633	340.1007036808521	1171.871037828577	2259.922474939015	356.7474186676155	1218.478155955254	2240.80732059833	386.5868692924228	1178.822969051284	2437.839338086083	532.6921512670475	1224.369506549328	2383.226721452091	515.8928885847785	1179.840747528247	2392.264821194079	632.1963190178351	1241.702225970502	2340.43034911185	615.2753854502366	1200.930048068765	
5	0.02666666666666667	2421.653851038838	898.803636676116	941.677739465705	2113.915928930283	39.55993757436483	1053.224649722079	2135.827640919952	58.80245469071404	1008.707163934736	2129.166563267686	85.61932455699008	1052.769415307404	2329.330094808991	961.4914627775444	893.9473709228287	2336.812602247496	46.81077276523781	1063.041529753547	2286.182087734188	41.68453583776357	963.6232906437031	2236.505574816419	929.0433832903968	1031.350197464847	2206.452877612142	166.7649885923883	985.8120030382798	2185.610925293968	184.9756621791602	1034.53783857826	2228.350154588898	242.347376062238	968.631408019633	2210.570659459533	260.0014765093534	1016.224991945056	2337.235883147442	530.5279349234198	911.701207153215	2278.193991558421	533.848990345173	954.2949709018801	2326.617863739868	637.504936398315	889.1555245474334	2270.664700257593	640.5943836329219	930.6381142123364	2436.774621076508	890.2769950754454	1180.42289611471	2202.413309666876	157.877166093635	1190.390495480533	2051.584704793775	272.3110550056371	1147.905791378903	2084.158707456401	273.4043023646378	1191.933142048407	2098.864185439529	292.2728313373984	1144.359266907835	2359.072950601305	953.7427035279112	1227.197957279409	2192.41112606463	107.9282152241884	1158.602557102587	2158.876260741876	148.3156841400937	1255.513668983002	2245.280407723392	920.4010384852156	1128.198659188213	2201.77390828796	304.0612997592053	1210.430323925189	2185.450310633022	334.1051989828447	1172.108921636157	2269.833922679458	354.2883600939659	1218.496626166767	2249.243091258767	383.481961669232	1179.061489837997	2443.169556016387	538.6845078838543	1224.677130338017	2388.524839277343	520.6285889276326	1180.669632468252	2395.764880562254	637.3554373985322	1242.252854269548	2343.921568152968	619.1626965069512	1202.026741404694	
